<?xml version="1.0" encoding="UTF-8"?>
<!DOCTYPE svg PUBLIC "-//W3C//DTD SVG 1.1//EN" "http://www.w3.org/Graphics/SVG/1.1/DTD/svg11.dtd">
<svg xmlns="http://www.w3.org/2000/svg" version="1.1" width="42px" height="42px" style="shape-rendering:geometricPrecision; text-rendering:geometricPrecision; image-rendering:optimizeQuality; fill-rule:evenodd; clip-rule:evenodd" xmlns:xlink="http://www.w3.org/1999/xlink">
<g><path style="opacity:0.936" fill="#545de0" d="M 32.5,-0.5 C 34.5,-0.5 36.5,-0.5 38.5,-0.5C 39.5116,0.871651 40.5116,2.20498 41.5,3.5C 41.5,4.5 41.5,5.5 41.5,6.5C 39.6081,10.1684 36.6081,11.3351 32.5,10C 28.5654,6.50401 28.5654,3.00401 32.5,-0.5 Z M 33.5,3.5 C 34.9778,3.23798 36.3112,3.57131 37.5,4.5C 35.5365,7.1939 34.2032,6.86057 33.5,3.5 Z"/></g>
<g><path style="opacity:0.917" fill="#545de0" d="M 31.5,41.5 C 23.5,41.5 15.5,41.5 7.5,41.5C 4.23924,39.9098 1.57257,37.5765 -0.5,34.5C -0.5,25.5 -0.5,16.5 -0.5,7.5C 1.39512,4.44334 4.06178,2.27667 7.5,1C 13.8333,0.333333 20.1667,0.333333 26.5,1C 27.8333,2 27.8333,3 26.5,4C 20.5,4.33333 14.5,4.66667 8.5,5C 6.71398,5.78451 5.21398,6.95118 4,8.5C 1.87219,17.2279 2.03886,25.8945 4.5,34.5C 5.5,35.3333 6.5,36.1667 7.5,37C 15.9371,37.9373 24.2704,37.604 32.5,36C 33.3333,35.1667 34.1667,34.3333 35,33.5C 35.3333,27.1667 35.6667,20.8333 36,14.5C 37.0113,13.6634 38.1779,13.33 39.5,13.5C 39.6663,20.175 39.4996,26.8417 39,33.5C 37.6468,37.3501 35.1468,40.0168 31.5,41.5 Z"/></g>
<g><path style="opacity:0.932" fill="#535de0" d="M 26.5,14.5 C 27.8333,14.5 29.1667,14.5 30.5,14.5C 29.4345,19.0789 26.9345,22.7456 23,25.5C 20.7661,24.2985 18.5994,22.9652 16.5,21.5C 14.9596,23.3868 13.2929,25.2201 11.5,27C 10.552,27.4828 9.55198,27.6495 8.5,27.5C 9.35,23.4501 11.35,19.9501 14.5,17C 17.3428,17.1154 19.8428,18.282 22,20.5C 24.1267,18.8863 25.6267,16.8863 26.5,14.5 Z"/></g>
</svg>
