<?xml version="1.0" encoding="UTF-8"?>
<!DOCTYPE svg PUBLIC "-//W3C//DTD SVG 1.1//EN" "http://www.w3.org/Graphics/SVG/1.1/DTD/svg11.dtd">
<svg xmlns="http://www.w3.org/2000/svg" version="1.1" width="39px" height="39px" style="shape-rendering:geometricPrecision; text-rendering:geometricPrecision; image-rendering:optimizeQuality; fill-rule:evenodd; clip-rule:evenodd" xmlns:xlink="http://www.w3.org/1999/xlink">
<g><path style="opacity:0.793" fill="#fe6c6c" d="M 30.5,-0.5 C 32.8333,-0.5 35.1667,-0.5 37.5,-0.5C 37.5,0.166667 37.8333,0.5 38.5,0.5C 38.5,2.83333 38.5,5.16667 38.5,7.5C 35.0271,17.7021 31.6938,28.0354 28.5,38.5C 26.5,38.5 24.5,38.5 22.5,38.5C 19.4951,33.9823 16.6618,29.3156 14,24.5C 9.05479,21.6143 4.22146,18.6143 -0.5,15.5C -0.5,13.5 -0.5,11.5 -0.5,9.5C 9.91331,6.13914 20.2466,2.80581 30.5,-0.5 Z M 30.5,3.5 C 31.8333,3.5 33.1667,3.5 34.5,3.5C 32.1129,13.9964 29.1129,24.3297 25.5,34.5C 22.4763,30.9659 19.8096,27.1326 17.5,23C 21,19.5 24.5,16 28,12.5C 28.4828,11.552 28.6495,10.552 28.5,9.5C 27.448,9.35055 26.448,9.51722 25.5,10C 22,13.5 18.5,17 15,20.5C 10.8674,18.1904 7.03409,15.5237 3.5,12.5C 12.6561,9.63596 21.6561,6.63596 30.5,3.5 Z"/></g>
</svg>
