<?xml version="1.0" encoding="UTF-8"?>
<!DOCTYPE svg PUBLIC "-//W3C//DTD SVG 1.1//EN" "http://www.w3.org/Graphics/SVG/1.1/DTD/svg11.dtd">
<svg xmlns="http://www.w3.org/2000/svg" version="1.1" width="42px" height="39px" style="shape-rendering:geometricPrecision; text-rendering:geometricPrecision; image-rendering:optimizeQuality; fill-rule:evenodd; clip-rule:evenodd" xmlns:xlink="http://www.w3.org/1999/xlink">
<g><path style="opacity:0.802" fill="#fefffe" d="M 6.5,-0.5 C 15.5,-0.5 24.5,-0.5 33.5,-0.5C 36.907,1.90326 39.5737,4.90326 41.5,8.5C 41.5,15.1667 41.5,21.8333 41.5,28.5C 39.8333,33.5 36.5,36.8333 31.5,38.5C 23.8333,38.5 16.1667,38.5 8.5,38.5C 4.47409,36.9871 1.47409,34.3204 -0.5,30.5C -0.5,22.5 -0.5,14.5 -0.5,6.5C 1.5,3.83333 3.83333,1.5 6.5,-0.5 Z M 10.5,2.5 C 16.8421,2.33379 23.1754,2.50046 29.5,3C 33.9316,3.59776 36.5983,6.09776 37.5,10.5C 34.2152,11.3236 30.8818,11.8236 27.5,12C 22.1667,16.3333 22.1667,20.6667 27.5,25C 30.8168,25.4983 34.1501,25.665 37.5,25.5C 37.2759,29.5616 35.2759,32.395 31.5,34C 23.0887,34.9054 14.7554,34.5721 6.5,33C 4.68297,31.2002 3.5163,29.0336 3,26.5C 2.13044,20.0828 2.46377,13.7494 4,7.5C 5.80493,5.17434 7.9716,3.50767 10.5,2.5 Z M 30.5,14.5 C 32.8333,14.5 35.1667,14.5 37.5,14.5C 37.5,16.8333 37.5,19.1667 37.5,21.5C 34.8127,21.6641 32.146,21.4974 29.5,21C 27.1155,18.5495 27.4488,16.3829 30.5,14.5 Z"/></g>
<g><path style="opacity:0.73" fill="#fefffe" d="M 8.5,8.5 C 13.1667,8.5 17.8333,8.5 22.5,8.5C 22.67,9.82207 22.3366,10.9887 21.5,12C 17.5,12.6667 13.5,12.6667 9.5,12C 8.66337,10.9887 8.33003,9.82207 8.5,8.5 Z"/></g>
<g><path style="opacity:0.562" fill="#fefffe" d="M 29.5,16.5 C 34.3916,16.1637 35.2249,17.4971 32,20.5C 29.9803,19.9681 29.147,18.6348 29.5,16.5 Z"/></g>
</svg>
